<svg width="104" height="98" viewBox="0 0 104 98" fill="none" xmlns="http://www.w3.org/2000/svg">
<ellipse cx="52" cy="48.655" rx="52" ry="48.655" fill="#D9D9D9"/>
<path fill-rule="evenodd" clip-rule="evenodd" d="M52 97.3069C80.7196 97.3069 104 75.5248 104 48.6535C104 21.7822 80.7196 0 52 0C23.2804 0 0 21.7822 0 48.6535C0 75.5248 23.2804 97.3069 52 97.3069ZM46.3528 54.8616C45.916 57.5862 48.3912 59.834 51.3344 59.834H53.7784C54.4728 59.8341 55.1411 59.5866 55.6473 59.1419C56.1535 58.6972 56.4596 58.0887 56.5032 57.4403C56.7996 54.8811 57.9748 52.643 60.0184 50.731L63.2944 47.7145C65.8528 45.3061 67.6416 43.1216 68.666 41.1608C69.6904 39.1709 70.2 37.0642 70.2 34.8407C70.2 29.9511 68.6244 26.1707 65.4732 23.5045C62.322 20.8091 57.8916 19.4614 52.182 19.4614C46.5244 19.4614 42.0576 20.8723 38.766 23.6991C36.8176 25.39 35.393 27.5415 34.6424 29.9267C33.6856 32.8654 36.5144 35.4295 39.7904 35.4295C42.5672 35.4295 44.642 33.313 46.5712 31.3426C46.8416 31.0652 47.1068 30.7879 47.372 30.5252C48.5888 29.3234 50.1904 28.725 52.182 28.725C56.3836 28.725 58.4844 30.9339 58.4844 35.3516C58.4844 36.8161 58.0788 38.2173 57.2728 39.5504C56.4668 40.8592 54.834 42.5718 52.3848 44.6882C49.9616 46.7803 48.2924 48.9162 47.372 51.0861C46.9196 52.1614 46.5816 53.4215 46.3528 54.8616ZM46.6492 67.5651C45.4376 68.689 44.8292 70.1291 44.8292 71.8806C44.8292 73.6078 45.422 75.0334 46.6076 76.1621C47.8192 77.2812 49.4104 77.8455 51.376 77.8455C53.3416 77.8455 54.912 77.2812 56.1028 76.1573C57.3144 75.0334 57.9228 73.6078 57.9228 71.8806C57.9228 70.1291 57.2988 68.689 56.0612 67.5651C54.8496 66.412 53.2844 65.8379 51.376 65.8379C49.4624 65.8379 47.892 66.412 46.6492 67.5651Z" fill="#155DB7" fill-opacity="0.76"/>
</svg>
